<?xml version="1.0" encoding="utf-8"?>
<!-- Generator: Adobe Illustrator 21.0.2, SVG Export Plug-In . SVG Version: 6.00 Build 0)  -->
<svg version="1.1" id="Layer_1" xmlns="http://www.w3.org/2000/svg" xmlns:xlink="http://www.w3.org/1999/xlink" x="0px" y="0px"
	 viewBox="0 0 1443.2 595" style="enable-background:new 0 0 1443.2 595;" xml:space="preserve">
<style type="text/css">
	.st0{fill:url(#SVGID_1_);}
	.st1{fill:url(#SVGID_2_);}
	.st2{fill:url(#SVGID_3_);}
	.st3{fill:url(#SVGID_4_);}
	.st4{fill:url(#SVGID_5_);}
	.st5{fill:url(#SVGID_6_);}
	.st6{fill:#FF7900;}
</style>
<linearGradient id="SVGID_1_" gradientUnits="userSpaceOnUse" x1="847.8765" y1="-1.767" x2="847.8765" y2="207.941" gradientTransform="matrix(1 0 0 -1 0 593.156)">
	<stop  offset="0" style="stop-color:#D52B1E"/>
	<stop  offset="8.140001e-02" style="stop-color:#DB3719"/>
	<stop  offset="0.3157" style="stop-color:#EB540E"/>
	<stop  offset="0.549" style="stop-color:#F66806"/>
	<stop  offset="0.7785" style="stop-color:#FD7502"/>
	<stop  offset="1" style="stop-color:#FF7900"/>
</linearGradient>
<path class="st0" d="M847.7,594.9c-25.5,0-47-9.1-62-26.4c-13.4-15.4-20.8-38.9-20.8-66.1V478c0-27.2,7.4-50.7,20.8-66.1
	c15.2-17.5,36.7-26.7,62-26.7c25,0,47.1,9.5,62.2,26.7c13.5,15.4,21,38.9,21,66.1v24.4c0,27.7-7.6,50.9-22,67.2
	C894.2,586.2,873.1,594.9,847.7,594.9L847.7,594.9z M847.7,426.3c-13.1,0-23.1,4.3-29.6,12.6c-6.7,8.6-10.1,21.8-10.1,39.1v24.4
	c0,17.3,3.4,30.4,10.1,38.9c6.5,8.3,16.5,12.5,29.7,12.5c11.3,0,24.4-3.1,32.3-16.4c5.1-8.6,7.8-20.4,7.8-35V478
	c-0.1-25.4-7.9-40.3-19.8-47.1C862.5,427.8,855.6,426.3,847.7,426.3L847.7,426.3z"/>
<linearGradient id="SVGID_2_" gradientUnits="userSpaceOnUse" x1="1199.8424" y1="-1.811" x2="1199.8424" y2="207.8981" gradientTransform="matrix(1 0 0 -1 0 593.156)">
	<stop  offset="0" style="stop-color:#D52B1E"/>
	<stop  offset="8.140001e-02" style="stop-color:#DB3719"/>
	<stop  offset="0.3157" style="stop-color:#EB540E"/>
	<stop  offset="0.549" style="stop-color:#F66806"/>
	<stop  offset="0.7785" style="stop-color:#FD7502"/>
	<stop  offset="1" style="stop-color:#FF7900"/>
</linearGradient>
<path class="st1" d="M1199.7,595c-25.5,0-47-9.1-62-26.4c-13.4-15.4-20.8-38.9-20.8-66.1v-24.4c0-27.2,7.4-50.7,20.8-66.1
	c15.2-17.5,36.7-26.7,62-26.7c25,0,47.1,9.5,62.2,26.7c13.5,15.4,21,38.9,21,66.1v24.4c0,27.7-7.6,50.9-22,67.2
	C1246.2,586.2,1225,595,1199.7,595L1199.7,595z M1199.7,426.3c-13.1,0-23.1,4.3-29.6,12.6c-6.7,8.6-10.1,21.8-10.1,39.1v24.4
	c0,17.3,3.4,30.4,10.1,38.9c6.5,8.3,16.5,12.5,29.7,12.5c11.3,0,24.4-3.1,32.3-16.4c5.1-8.6,7.8-20.4,7.8-35v-24.4
	c-0.1-25.4-7.9-40.3-19.8-47.1C1214.5,427.9,1207.6,426.3,1199.7,426.3L1199.7,426.3z"/>
<linearGradient id="SVGID_3_" gradientUnits="userSpaceOnUse" x1="1023.8755" y1="-1.876" x2="1023.8755" y2="204.077" gradientTransform="matrix(1 0 0 -1 0 593.156)">
	<stop  offset="0" style="stop-color:#D52B1E"/>
	<stop  offset="8.140001e-02" style="stop-color:#DB3719"/>
	<stop  offset="0.3157" style="stop-color:#EB540E"/>
	<stop  offset="0.549" style="stop-color:#F66806"/>
	<stop  offset="0.7785" style="stop-color:#FD7502"/>
	<stop  offset="1" style="stop-color:#FF7900"/>
</linearGradient>
<path class="st2" d="M1114.2,389.1h-44.8l-45.4,164.6c0,0,0,0,0,0c0,0-45.4-164.6-45.4-164.6h-44.8l53.2,181.7
	c2.8,9.6,8.3,16.4,16.4,20.3c7.3,3.5,15.3,3.9,20.6,3.9h0c5.4,0,13.3-0.4,20.6-3.9c8.1-3.9,13.6-10.7,16.4-20.3L1114.2,389.1z"/>
<linearGradient id="SVGID_4_" gradientUnits="userSpaceOnUse" x1="470.81" y1="-1.8261" x2="470.81" y2="207.965" gradientTransform="matrix(1 0 0 -1 0 593.156)">
	<stop  offset="0" style="stop-color:#D52B1E"/>
	<stop  offset="8.140001e-02" style="stop-color:#DB3719"/>
	<stop  offset="0.3157" style="stop-color:#EB540E"/>
	<stop  offset="0.549" style="stop-color:#F66806"/>
	<stop  offset="0.7785" style="stop-color:#FD7502"/>
	<stop  offset="1" style="stop-color:#FF7900"/>
</linearGradient>
<path class="st3" d="M552.9,475.3c0-21.4-5-47.3-21.4-65.2c-5.9-6.4-15.3-13.5-25.5-18c-8.1-3.6-20.6-6.9-33.9-6.9
	c-26.1,0-46.5,8.8-61.1,24.5c-14.8,15.9-21.4,37.8-22.4,65v30c0,31.8,8.5,55.7,26.3,71.1c14.6,12.7,38.4,19.1,62.9,19.1
	c20.4,0,35.2-2.9,54.1-6.5l10.8-2.4v-39l-10.8,1.8c-14.4,2.3-34.2,5.7-54.1,5.7c-14.6,0-28.9-3.3-35.1-10.6
	c-6.4-7.4-11.3-17.5-11.5-35.2h100.5c0.1,0,0.2,0,0.3,0c11.5-0.3,20.8-9.7,20.8-21.3c0,0,0,0,0,0c0,0,0-0.1,0-0.1V475.3z
	 M431.4,471.6c0.5-12,0.3-21.5,5.3-29.3c1.5-2.7,3.7-5.3,6.4-7.7c3.4-3,7.2-5.1,10.8-6.1c4.8-1.7,10.6-2.3,18.2-2.3
	c14.9,0,24.5,5.3,29.4,10.9c8.5,9.9,8.8,20.7,9.4,34.4L431.4,471.6L431.4,471.6z"/>
<linearGradient id="SVGID_5_" gradientUnits="userSpaceOnUse" x1="658.9245" y1="2.099" x2="658.9245" y2="207.942" gradientTransform="matrix(1 0 0 -1 0 593.156)">
	<stop  offset="0" style="stop-color:#D52B1E"/>
	<stop  offset="8.140001e-02" style="stop-color:#DB3719"/>
	<stop  offset="0.3157" style="stop-color:#EB540E"/>
	<stop  offset="0.549" style="stop-color:#F66806"/>
	<stop  offset="0.7785" style="stop-color:#FD7502"/>
	<stop  offset="1" style="stop-color:#FF7900"/>
</linearGradient>
<path class="st4" d="M741.9,478c0-27.2-7.5-50.7-21-66.1c-15.1-17.2-37.2-26.7-62.2-26.7c-25.3,0-46.8,9.2-62,26.7
	c-13.4,15.4-20.8,38.9-20.8,66.1v113H619l0-113c0-17.3,3.4-30.5,10.1-39.1c6.5-8.4,16.5-12.5,29.6-12.6c13.1-0.1,24,4.8,29.9,12.4
	c6.7,8.7,10.3,21.6,10.3,39.3l0,113h43.1C741.9,591.1,741.9,478,741.9,478z"/>
<linearGradient id="SVGID_6_" gradientUnits="userSpaceOnUse" x1="1371.1134" y1="-1.722" x2="1371.1134" y2="207.474" gradientTransform="matrix(1 0 0 -1 0 593.156)">
	<stop  offset="0" style="stop-color:#D52B1E"/>
	<stop  offset="8.140001e-02" style="stop-color:#DB3719"/>
	<stop  offset="0.3157" style="stop-color:#EB540E"/>
	<stop  offset="0.549" style="stop-color:#F66806"/>
	<stop  offset="0.7785" style="stop-color:#FD7502"/>
	<stop  offset="1" style="stop-color:#FF7900"/>
</linearGradient>
<path class="st5" d="M1400.7,478.7l-35.4-19.5c-16.1-9.2-20.2-15.5-20.2-20.6c0-6.9,2.9-13.6,25.3-13.5c21.5,0.2,54.2,5.9,54.2,5.9
	c4.3,0.7,7.5,1.5,9.7,1.8l0-39.1c-0.6-0.1-4.2-0.9-7.3-1.4c-18.3-3.3-37.5-6.5-56.7-6.5c-21.8,0-38,3.5-49.7,10.6
	c-14.4,8.8-21.7,23-21.7,42.3c0,11.8,3.9,22.7,11.4,32.3c6.4,8.1,15.6,15.6,28.2,23.1l0,0l0,0l36,19.9c20,11.6,23.6,17.8,23.6,23.6
	c0,9.4-4.7,17.9-28.6,17.9c-19.6,0-66.4-8.7-66.4-8.7v39.7c0,0,42,8.6,66.4,8.6c22.2,0,39.8-4.4,52.3-13.1
	c14.1-9.8,21.2-25.6,21.2-44.9C1443.2,512.9,1430.9,496.1,1400.7,478.7z"/>
<g>
	<g>
		<path class="st6" d="M228.2,130.4L228.2,130.4c-3.6,0-8.9-0.3-13.9-2.7c-5.8-2.8-9.7-7.6-11.6-14.3L169.6,0h34.2
			c0,0,17.3,69.9,24.5,96.1L252.7,0h34.1l-33.1,113.4c-2,6.7-5.9,11.6-11.6,14.3C237.1,130.2,231.8,130.4,228.2,130.4L228.2,130.4z"
			/>
	</g>
	<g>
		<path class="st6" d="M228.2,326.1L228.2,326.1c3.6,0,8.9,0.3,13.9,2.7c5.8,2.8,9.7,7.6,11.6,14.3l33.1,113.4h-34.2
			c0,0-17.3-69.9-24.5-96.1l-24.5,96.1h-34.1l33.2-113.4c2-6.7,5.9-11.6,11.6-14.3C219.4,326.4,224.7,326.1,228.2,326.1L228.2,326.1
			z"/>
	</g>
	<g>
		<path class="st6" d="M326.1,228.3L326.1,228.3c0-3.6,0.3-8.9,2.7-13.9c2.8-5.8,7.6-9.7,14.3-11.7l113.4-33.1v34.2
			c0,0-69.9,17.3-96.1,24.5l96.1,24.5v34.2l-113.4-33.2c-6.7-2-11.6-5.9-14.3-11.6C326.4,237.1,326.1,231.8,326.1,228.3L326.1,228.3
			z"/>
	</g>
	<g>
		<path class="st6" d="M130.4,228.3L130.4,228.3c0,3.6-0.3,8.9-2.7,13.9c-2.8,5.8-7.6,9.7-14.3,11.6L0,286.9v-34.2
			c0,0,69.9-17.3,96.1-24.5L0,203.8v-34.1l113.4,33.2c6.7,2,11.6,5.9,14.3,11.6C130.2,219.4,130.4,224.7,130.4,228.3L130.4,228.3z"
			/>
	</g>
	<g>
		<path class="st6" d="M297.4,297.4L297.4,297.4c2.5-2.5,6.5-6.1,11.7-7.9c6-2.1,12.2-1.5,18.4,1.9l103.6,56.8L407,372.3
			c0,0-61.6-37.2-85.3-50.7l50.7,85.3l-24.1,24.1l-56.8-103.7c-3.4-6.1-4-12.3-1.9-18.4C291.4,303.9,294.9,300,297.4,297.4
			L297.4,297.4z"/>
	</g>
	<g>
		<path class="st6" d="M159.1,159.1L159.1,159.1c-2.5,2.5-6.5,6.1-11.7,7.9c-6,2.1-12.2,1.5-18.4-1.9L25.4,108.3l24.2-24.1
			c0,0,61.6,37.2,85.3,50.7L84.2,49.5l24.1-24.1L165.1,129c3.4,6.1,4,12.3,1.9,18.4C165.1,152.6,161.6,156.6,159.1,159.1
			L159.1,159.1z"/>
	</g>
	<g>
		<path class="st6" d="M159,297.4L159,297.4c2.5,2.5,6.1,6.5,7.9,11.7c2.1,6,1.5,12.2-1.9,18.4l-56.8,103.6L84.1,407
			c0,0,37.2-61.6,50.7-85.3l-85.3,50.7l-24.1-24.1L129,291.4c6.1-3.4,12.3-4,18.4-1.9C152.6,291.4,156.5,294.9,159,297.4L159,297.4z
			"/>
	</g>
	<g>
		<path class="st6" d="M297.4,159.1L297.4,159.1c-2.5-2.5-6.1-6.5-7.9-11.7c-2.1-6-1.5-12.2,1.9-18.4l56.8-103.6l24.2,24.2
			c0,0-37.2,61.6-50.7,85.3L407,84.2l24.1,24.1l-103.7,56.8c-6.1,3.4-12.3,4-18.4,1.9C303.9,165.2,299.9,161.6,297.4,159.1
			L297.4,159.1z"/>
	</g>
</g>
</svg>
